<mxfile host="app.diagrams.net" agent="Mozilla/5.0 (X11; Linux x86_64; rv:135.0) Gecko/20100101 Firefox/135.0" version="27.1.4">
  <diagram name="Страница — 1" id="In6EuAK2hLa82HV9E6Y3">
    <mxGraphModel dx="2619" dy="1151" grid="0" gridSize="10" guides="1" tooltips="1" connect="1" arrows="1" fold="1" page="0" pageScale="1" pageWidth="1169" pageHeight="827" math="0" shadow="0">
      <root>
        <mxCell id="0" />
        <mxCell id="1" parent="0" />
        <mxCell id="g3hmRtNGoqS-Z9Us9CLw-1" style="edgeStyle=orthogonalEdgeStyle;rounded=0;orthogonalLoop=1;jettySize=auto;html=1;" parent="1" source="Gvg2SHOieTsxs5hfF7sB-112" target="Gvg2SHOieTsxs5hfF7sB-89" edge="1">
          <mxGeometry relative="1" as="geometry">
            <mxPoint x="1107" y="13" as="sourcePoint" />
            <mxPoint x="1107" y="-30" as="targetPoint" />
            <Array as="points">
              <mxPoint x="1034" y="24" />
              <mxPoint x="1034" y="24" />
            </Array>
          </mxGeometry>
        </mxCell>
        <mxCell id="Gvg2SHOieTsxs5hfF7sB-75" value="DFD Level 0" style="shape=umlFrame;whiteSpace=wrap;html=1;pointerEvents=0;width=114;height=29;" parent="1" vertex="1">
          <mxGeometry x="500" y="-27" width="254" height="264" as="geometry" />
        </mxCell>
        <mxCell id="Gvg2SHOieTsxs5hfF7sB-78" style="edgeStyle=orthogonalEdgeStyle;rounded=0;orthogonalLoop=1;jettySize=auto;html=1;" parent="1" source="Gvg2SHOieTsxs5hfF7sB-76" target="Gvg2SHOieTsxs5hfF7sB-77" edge="1">
          <mxGeometry relative="1" as="geometry">
            <Array as="points">
              <mxPoint x="546.5" y="36" />
              <mxPoint x="546.5" y="185" />
            </Array>
          </mxGeometry>
        </mxCell>
        <mxCell id="Gvg2SHOieTsxs5hfF7sB-79" value="Authorization data" style="edgeLabel;html=1;align=center;verticalAlign=middle;resizable=0;points=[];" parent="Gvg2SHOieTsxs5hfF7sB-78" vertex="1" connectable="0">
          <mxGeometry x="0.0333" relative="1" as="geometry">
            <mxPoint as="offset" />
          </mxGeometry>
        </mxCell>
        <mxCell id="Gvg2SHOieTsxs5hfF7sB-80" style="edgeStyle=orthogonalEdgeStyle;rounded=0;orthogonalLoop=1;jettySize=auto;html=1;" parent="1" source="Gvg2SHOieTsxs5hfF7sB-76" target="Gvg2SHOieTsxs5hfF7sB-77" edge="1">
          <mxGeometry relative="1" as="geometry">
            <Array as="points">
              <mxPoint x="717.5" y="36" />
              <mxPoint x="717.5" y="185" />
            </Array>
          </mxGeometry>
        </mxCell>
        <mxCell id="Gvg2SHOieTsxs5hfF7sB-81" value="Rules data" style="edgeLabel;html=1;align=center;verticalAlign=middle;resizable=0;points=[];" parent="Gvg2SHOieTsxs5hfF7sB-80" vertex="1" connectable="0">
          <mxGeometry x="-0.0048" y="1" relative="1" as="geometry">
            <mxPoint as="offset" />
          </mxGeometry>
        </mxCell>
        <mxCell id="Gvg2SHOieTsxs5hfF7sB-76" value="User" style="html=1;whiteSpace=wrap;" parent="1" vertex="1">
          <mxGeometry x="576.5" y="11" width="110" height="50" as="geometry" />
        </mxCell>
        <mxCell id="Gvg2SHOieTsxs5hfF7sB-77" value="Central Procces of GooD Autobackuper" style="ellipse;whiteSpace=wrap;html=1;" parent="1" vertex="1">
          <mxGeometry x="571.5" y="145" width="120" height="80" as="geometry" />
        </mxCell>
        <mxCell id="Gvg2SHOieTsxs5hfF7sB-82" value="DFD Level 1" style="shape=umlFrame;whiteSpace=wrap;html=1;pointerEvents=0;width=78;height=30;" parent="1" vertex="1">
          <mxGeometry x="852" y="-35" width="299" height="560" as="geometry" />
        </mxCell>
        <mxCell id="Gvg2SHOieTsxs5hfF7sB-97" style="edgeStyle=orthogonalEdgeStyle;rounded=0;orthogonalLoop=1;jettySize=auto;html=1;" parent="1" source="Gvg2SHOieTsxs5hfF7sB-87" target="Gvg2SHOieTsxs5hfF7sB-89" edge="1">
          <mxGeometry relative="1" as="geometry" />
        </mxCell>
        <mxCell id="Gvg2SHOieTsxs5hfF7sB-98" value="Authorization data" style="edgeLabel;html=1;align=center;verticalAlign=middle;resizable=0;points=[];" parent="Gvg2SHOieTsxs5hfF7sB-97" vertex="1" connectable="0">
          <mxGeometry x="-0.0434" relative="1" as="geometry">
            <mxPoint as="offset" />
          </mxGeometry>
        </mxCell>
        <mxCell id="Gvg2SHOieTsxs5hfF7sB-100" style="edgeStyle=orthogonalEdgeStyle;rounded=0;orthogonalLoop=1;jettySize=auto;html=1;" parent="1" source="Gvg2SHOieTsxs5hfF7sB-87" target="Gvg2SHOieTsxs5hfF7sB-96" edge="1">
          <mxGeometry relative="1" as="geometry" />
        </mxCell>
        <mxCell id="Gvg2SHOieTsxs5hfF7sB-101" value="Rule data" style="edgeLabel;html=1;align=center;verticalAlign=middle;resizable=0;points=[];" parent="Gvg2SHOieTsxs5hfF7sB-100" vertex="1" connectable="0">
          <mxGeometry x="-0.2672" y="2" relative="1" as="geometry">
            <mxPoint x="-2" y="1" as="offset" />
          </mxGeometry>
        </mxCell>
        <mxCell id="Gvg2SHOieTsxs5hfF7sB-87" value="User" style="html=1;whiteSpace=wrap;" parent="1" vertex="1">
          <mxGeometry x="949.5" y="162" width="110" height="50" as="geometry" />
        </mxCell>
        <mxCell id="Gvg2SHOieTsxs5hfF7sB-113" style="edgeStyle=orthogonalEdgeStyle;rounded=0;orthogonalLoop=1;jettySize=auto;html=1;" parent="1" source="Gvg2SHOieTsxs5hfF7sB-89" target="Gvg2SHOieTsxs5hfF7sB-112" edge="1">
          <mxGeometry relative="1" as="geometry">
            <Array as="points">
              <mxPoint x="982" y="19" />
              <mxPoint x="982" y="19" />
            </Array>
          </mxGeometry>
        </mxCell>
        <mxCell id="Gvg2SHOieTsxs5hfF7sB-114" value="Authorization data" style="edgeLabel;html=1;align=center;verticalAlign=middle;resizable=0;points=[];" parent="Gvg2SHOieTsxs5hfF7sB-113" vertex="1" connectable="0">
          <mxGeometry x="-0.1256" relative="1" as="geometry">
            <mxPoint x="23" y="-1" as="offset" />
          </mxGeometry>
        </mxCell>
        <mxCell id="Gvg2SHOieTsxs5hfF7sB-89" value="1.Log in to  Google Account" style="ellipse;whiteSpace=wrap;html=1;" parent="1" vertex="1">
          <mxGeometry x="944.5" y="43" width="120" height="80" as="geometry" />
        </mxCell>
        <mxCell id="Gvg2SHOieTsxs5hfF7sB-104" style="edgeStyle=orthogonalEdgeStyle;rounded=0;orthogonalLoop=1;jettySize=auto;html=1;" parent="1" source="Gvg2SHOieTsxs5hfF7sB-96" target="Gvg2SHOieTsxs5hfF7sB-103" edge="1">
          <mxGeometry relative="1" as="geometry" />
        </mxCell>
        <mxCell id="Gvg2SHOieTsxs5hfF7sB-105" value="Rule data" style="edgeLabel;html=1;align=center;verticalAlign=middle;resizable=0;points=[];" parent="Gvg2SHOieTsxs5hfF7sB-104" vertex="1" connectable="0">
          <mxGeometry x="-0.4086" y="-1" relative="1" as="geometry">
            <mxPoint x="1" y="4" as="offset" />
          </mxGeometry>
        </mxCell>
        <mxCell id="Gvg2SHOieTsxs5hfF7sB-96" value="2. Create rule" style="ellipse;whiteSpace=wrap;html=1;" parent="1" vertex="1">
          <mxGeometry x="940" y="252" width="129" height="80" as="geometry" />
        </mxCell>
        <mxCell id="Gvg2SHOieTsxs5hfF7sB-107" style="edgeStyle=orthogonalEdgeStyle;rounded=0;orthogonalLoop=1;jettySize=auto;html=1;" parent="1" source="Gvg2SHOieTsxs5hfF7sB-103" target="Gvg2SHOieTsxs5hfF7sB-106" edge="1">
          <mxGeometry relative="1" as="geometry" />
        </mxCell>
        <mxCell id="Gvg2SHOieTsxs5hfF7sB-111" value="Rule data" style="edgeLabel;html=1;align=center;verticalAlign=middle;resizable=0;points=[];" parent="Gvg2SHOieTsxs5hfF7sB-107" vertex="1" connectable="0">
          <mxGeometry x="0.0233" relative="1" as="geometry">
            <mxPoint y="-4" as="offset" />
          </mxGeometry>
        </mxCell>
        <mxCell id="Gvg2SHOieTsxs5hfF7sB-103" value="rules.csv" style="html=1;dashed=0;whiteSpace=wrap;shape=partialRectangle;right=0;" parent="1" vertex="1">
          <mxGeometry x="954.5" y="375" width="100" height="30" as="geometry" />
        </mxCell>
        <mxCell id="Gvg2SHOieTsxs5hfF7sB-106" value="3. Backup to Google Drive" style="ellipse;whiteSpace=wrap;html=1;" parent="1" vertex="1">
          <mxGeometry x="940" y="448" width="129" height="74" as="geometry" />
        </mxCell>
        <mxCell id="Gvg2SHOieTsxs5hfF7sB-112" value="tocken.json" style="html=1;dashed=0;whiteSpace=wrap;shape=partialRectangle;right=0;" parent="1" vertex="1">
          <mxGeometry x="954.5" y="-30" width="100" height="30" as="geometry" />
        </mxCell>
        <mxCell id="Gvg2SHOieTsxs5hfF7sB-116" value="Use case diagram" style="shape=umlFrame;whiteSpace=wrap;html=1;pointerEvents=0;width=125;height=31;" parent="1" vertex="1">
          <mxGeometry x="1258" y="-42" width="682" height="494" as="geometry" />
        </mxCell>
        <mxCell id="Gvg2SHOieTsxs5hfF7sB-117" value="&lt;div&gt;User&lt;/div&gt;" style="shape=umlActor;verticalLabelPosition=bottom;verticalAlign=top;html=1;" parent="1" vertex="1">
          <mxGeometry x="1580" y="366" width="30" height="60" as="geometry" />
        </mxCell>
        <mxCell id="Gvg2SHOieTsxs5hfF7sB-119" value="System" style="shape=umlFrame;whiteSpace=wrap;html=1;pointerEvents=0;" parent="1" vertex="1">
          <mxGeometry x="1264" y="-6" width="668" height="350" as="geometry" />
        </mxCell>
        <mxCell id="Gvg2SHOieTsxs5hfF7sB-120" value="Log in to  Google Account" style="ellipse;whiteSpace=wrap;html=1;" parent="1" vertex="1">
          <mxGeometry x="1778" y="240" width="120" height="80" as="geometry" />
        </mxCell>
        <mxCell id="Gvg2SHOieTsxs5hfF7sB-122" value="" style="endArrow=classic;html=1;rounded=0;" parent="1" source="Gvg2SHOieTsxs5hfF7sB-117" target="Gvg2SHOieTsxs5hfF7sB-120" edge="1">
          <mxGeometry width="50" height="50" relative="1" as="geometry">
            <mxPoint x="1408" y="198" as="sourcePoint" />
            <mxPoint x="1458" y="148" as="targetPoint" />
          </mxGeometry>
        </mxCell>
        <mxCell id="Gvg2SHOieTsxs5hfF7sB-123" value="Login automatically" style="ellipse;whiteSpace=wrap;html=1;" parent="1" vertex="1">
          <mxGeometry x="1778" y="94" width="120" height="80" as="geometry" />
        </mxCell>
        <mxCell id="Gvg2SHOieTsxs5hfF7sB-125" value="" style="endArrow=classic;html=1;rounded=0;" parent="1" source="Gvg2SHOieTsxs5hfF7sB-117" target="Gvg2SHOieTsxs5hfF7sB-123" edge="1">
          <mxGeometry width="50" height="50" relative="1" as="geometry">
            <mxPoint x="1332" y="103.49000000000001" as="sourcePoint" />
            <mxPoint x="1444" y="50.49000000000001" as="targetPoint" />
          </mxGeometry>
        </mxCell>
        <mxCell id="Gvg2SHOieTsxs5hfF7sB-126" value="Backup to Google Drive" style="ellipse;whiteSpace=wrap;html=1;" parent="1" vertex="1">
          <mxGeometry x="1283" y="240" width="138" height="74" as="geometry" />
        </mxCell>
        <mxCell id="Gvg2SHOieTsxs5hfF7sB-129" value="Create rule" style="ellipse;whiteSpace=wrap;html=1;" parent="1" vertex="1">
          <mxGeometry x="1287.5" y="120" width="129" height="80" as="geometry" />
        </mxCell>
        <mxCell id="Gvg2SHOieTsxs5hfF7sB-132" value="Include" style="endArrow=open;endSize=12;dashed=1;html=1;rounded=0;" parent="1" source="Gvg2SHOieTsxs5hfF7sB-126" target="Gvg2SHOieTsxs5hfF7sB-129" edge="1">
          <mxGeometry width="160" relative="1" as="geometry">
            <mxPoint x="1530.9982858696176" y="145.85575742431473" as="sourcePoint" />
            <mxPoint x="1545.85" y="104" as="targetPoint" />
          </mxGeometry>
        </mxCell>
        <mxCell id="Gvg2SHOieTsxs5hfF7sB-133" value="Include" style="endArrow=open;endSize=12;dashed=1;html=1;rounded=0;" parent="1" source="Gvg2SHOieTsxs5hfF7sB-123" target="Gvg2SHOieTsxs5hfF7sB-120" edge="1">
          <mxGeometry width="160" relative="1" as="geometry">
            <mxPoint x="1465.19" y="148.26" as="sourcePoint" />
            <mxPoint x="1504.19" y="129.26" as="targetPoint" />
          </mxGeometry>
        </mxCell>
        <mxCell id="Gvg2SHOieTsxs5hfF7sB-134" value="" style="endArrow=classic;html=1;rounded=0;" parent="1" source="Gvg2SHOieTsxs5hfF7sB-117" target="Gvg2SHOieTsxs5hfF7sB-129" edge="1">
          <mxGeometry width="50" height="50" relative="1" as="geometry">
            <mxPoint x="1375" y="122" as="sourcePoint" />
            <mxPoint x="1668" y="93" as="targetPoint" />
          </mxGeometry>
        </mxCell>
        <mxCell id="Gvg2SHOieTsxs5hfF7sB-135" value="" style="endArrow=classic;html=1;rounded=0;" parent="1" source="Gvg2SHOieTsxs5hfF7sB-117" target="Gvg2SHOieTsxs5hfF7sB-126" edge="1">
          <mxGeometry width="50" height="50" relative="1" as="geometry">
            <mxPoint x="1319" y="168.5" as="sourcePoint" />
            <mxPoint x="1612" y="139.5" as="targetPoint" />
          </mxGeometry>
        </mxCell>
        <mxCell id="Gvg2SHOieTsxs5hfF7sB-136" value="Include" style="endArrow=open;endSize=12;dashed=1;html=1;rounded=0;" parent="1" source="Gvg2SHOieTsxs5hfF7sB-126" target="Gvg2SHOieTsxs5hfF7sB-120" edge="1">
          <mxGeometry x="-0.0364" width="160" relative="1" as="geometry">
            <mxPoint x="1639" y="210" as="sourcePoint" />
            <mxPoint x="1503.67" y="102.23000000000002" as="targetPoint" />
            <mxPoint as="offset" />
          </mxGeometry>
        </mxCell>
        <mxCell id="Gvg2SHOieTsxs5hfF7sB-138" value="Enter authorization data" style="ellipse;whiteSpace=wrap;html=1;" parent="1" vertex="1">
          <mxGeometry x="1603" y="4" width="145" height="80" as="geometry" />
        </mxCell>
        <mxCell id="Gvg2SHOieTsxs5hfF7sB-139" value="Enter rule data" style="ellipse;whiteSpace=wrap;html=1;" parent="1" vertex="1">
          <mxGeometry x="1428" y="4" width="145" height="80" as="geometry" />
        </mxCell>
        <mxCell id="Gvg2SHOieTsxs5hfF7sB-140" value="" style="endArrow=classic;html=1;rounded=0;" parent="1" source="Gvg2SHOieTsxs5hfF7sB-117" target="Gvg2SHOieTsxs5hfF7sB-139" edge="1">
          <mxGeometry width="50" height="50" relative="1" as="geometry">
            <mxPoint x="1617.27" y="284.29" as="sourcePoint" />
            <mxPoint x="1424.27" y="97.29000000000002" as="targetPoint" />
          </mxGeometry>
        </mxCell>
        <mxCell id="Gvg2SHOieTsxs5hfF7sB-141" value="" style="endArrow=classic;html=1;rounded=0;" parent="1" source="Gvg2SHOieTsxs5hfF7sB-117" target="Gvg2SHOieTsxs5hfF7sB-138" edge="1">
          <mxGeometry width="50" height="50" relative="1" as="geometry">
            <mxPoint x="1650.32" y="360.78" as="sourcePoint" />
            <mxPoint x="1587.32" y="156.78" as="targetPoint" />
          </mxGeometry>
        </mxCell>
        <mxCell id="Gvg2SHOieTsxs5hfF7sB-142" value="Include" style="endArrow=open;endSize=12;dashed=1;html=1;rounded=0;" parent="1" source="Gvg2SHOieTsxs5hfF7sB-129" target="Gvg2SHOieTsxs5hfF7sB-139" edge="1">
          <mxGeometry width="160" relative="1" as="geometry">
            <mxPoint x="1401" y="125" as="sourcePoint" />
            <mxPoint x="1401" y="85" as="targetPoint" />
          </mxGeometry>
        </mxCell>
        <mxCell id="Gvg2SHOieTsxs5hfF7sB-144" value="Include" style="endArrow=open;endSize=12;dashed=1;html=1;rounded=0;" parent="1" source="Gvg2SHOieTsxs5hfF7sB-126" target="Gvg2SHOieTsxs5hfF7sB-138" edge="1">
          <mxGeometry x="0.3508" y="-1" width="160" relative="1" as="geometry">
            <mxPoint x="1554.1399999999999" y="136.64" as="sourcePoint" />
            <mxPoint x="1607.1399999999999" y="95.63999999999999" as="targetPoint" />
            <mxPoint as="offset" />
          </mxGeometry>
        </mxCell>
        <mxCell id="Gvg2SHOieTsxs5hfF7sB-145" value="Include" style="endArrow=open;endSize=12;dashed=1;html=1;rounded=0;" parent="1" source="Gvg2SHOieTsxs5hfF7sB-123" target="Gvg2SHOieTsxs5hfF7sB-138" edge="1">
          <mxGeometry width="160" relative="1" as="geometry">
            <mxPoint x="1443.19" y="264.93" as="sourcePoint" />
            <mxPoint x="1702.19" y="101.93" as="targetPoint" />
          </mxGeometry>
        </mxCell>
        <mxCell id="Gvg2SHOieTsxs5hfF7sB-146" value="Include" style="endArrow=open;endSize=12;dashed=1;html=1;rounded=0;" parent="1" source="Gvg2SHOieTsxs5hfF7sB-120" target="Gvg2SHOieTsxs5hfF7sB-138" edge="1">
          <mxGeometry width="160" relative="1" as="geometry">
            <mxPoint x="1760.38" y="180.87" as="sourcePoint" />
            <mxPoint x="1707.38" y="139.87" as="targetPoint" />
          </mxGeometry>
        </mxCell>
        <mxCell id="jhNYwIT_l3yr6Y4g-FwE-51" value="Rule" style="swimlane;fontStyle=1;align=center;verticalAlign=top;childLayout=stackLayout;horizontal=1;startSize=23;horizontalStack=0;resizeParent=1;resizeParentMax=0;resizeLast=0;collapsible=1;marginBottom=0;whiteSpace=wrap;html=1;" parent="1" vertex="1">
          <mxGeometry x="-300" y="118" width="272" height="461" as="geometry" />
        </mxCell>
        <mxCell id="oFdiycqgnuYmv6bXf8W3-8" value="- __pathFrom: str" style="text;strokeColor=none;fillColor=none;align=left;verticalAlign=top;spacingLeft=4;spacingRight=4;overflow=hidden;rotatable=0;points=[[0,0.5],[1,0.5]];portConstraint=eastwest;whiteSpace=wrap;html=1;" vertex="1" parent="jhNYwIT_l3yr6Y4g-FwE-51">
          <mxGeometry y="23" width="272" height="26" as="geometry" />
        </mxCell>
        <mxCell id="oFdiycqgnuYmv6bXf8W3-13" value="- __folderID: str" style="text;strokeColor=none;fillColor=none;align=left;verticalAlign=top;spacingLeft=4;spacingRight=4;overflow=hidden;rotatable=0;points=[[0,0.5],[1,0.5]];portConstraint=eastwest;whiteSpace=wrap;html=1;" vertex="1" parent="jhNYwIT_l3yr6Y4g-FwE-51">
          <mxGeometry y="49" width="272" height="26" as="geometry" />
        </mxCell>
        <mxCell id="oFdiycqgnuYmv6bXf8W3-12" value="- __account: str" style="text;strokeColor=none;fillColor=none;align=left;verticalAlign=top;spacingLeft=4;spacingRight=4;overflow=hidden;rotatable=0;points=[[0,0.5],[1,0.5]];portConstraint=eastwest;whiteSpace=wrap;html=1;" vertex="1" parent="jhNYwIT_l3yr6Y4g-FwE-51">
          <mxGeometry y="75" width="272" height="26" as="geometry" />
        </mxCell>
        <mxCell id="oFdiycqgnuYmv6bXf8W3-11" value="- __time: str" style="text;strokeColor=none;fillColor=none;align=left;verticalAlign=top;spacingLeft=4;spacingRight=4;overflow=hidden;rotatable=0;points=[[0,0.5],[1,0.5]];portConstraint=eastwest;whiteSpace=wrap;html=1;" vertex="1" parent="jhNYwIT_l3yr6Y4g-FwE-51">
          <mxGeometry y="101" width="272" height="26" as="geometry" />
        </mxCell>
        <mxCell id="oFdiycqgnuYmv6bXf8W3-10" value="- __weekday: str | None" style="text;strokeColor=none;fillColor=none;align=left;verticalAlign=top;spacingLeft=4;spacingRight=4;overflow=hidden;rotatable=0;points=[[0,0.5],[1,0.5]];portConstraint=eastwest;whiteSpace=wrap;html=1;" vertex="1" parent="jhNYwIT_l3yr6Y4g-FwE-51">
          <mxGeometry y="127" width="272" height="26" as="geometry" />
        </mxCell>
        <mxCell id="oFdiycqgnuYmv6bXf8W3-9" value="- __dayOfMonth: int | None" style="text;strokeColor=none;fillColor=none;align=left;verticalAlign=top;spacingLeft=4;spacingRight=4;overflow=hidden;rotatable=0;points=[[0,0.5],[1,0.5]];portConstraint=eastwest;whiteSpace=wrap;html=1;" vertex="1" parent="jhNYwIT_l3yr6Y4g-FwE-51">
          <mxGeometry y="153" width="272" height="26" as="geometry" />
        </mxCell>
        <mxCell id="jhNYwIT_l3yr6Y4g-FwE-52" value="" style="line;strokeWidth=1;fillColor=none;align=left;verticalAlign=middle;spacingTop=-1;spacingLeft=3;spacingRight=3;rotatable=0;labelPosition=right;points=[];portConstraint=eastwest;strokeColor=inherit;" parent="jhNYwIT_l3yr6Y4g-FwE-51" vertex="1">
          <mxGeometry y="179" width="272" height="2" as="geometry" />
        </mxCell>
        <mxCell id="jhNYwIT_l3yr6Y4g-FwE-53" value="+ __init__(...): None" style="text;strokeColor=none;fillColor=none;align=left;verticalAlign=top;spacingLeft=4;spacingRight=4;overflow=hidden;rotatable=0;points=[[0,0.5],[1,0.5]];portConstraint=eastwest;whiteSpace=wrap;html=1;" parent="jhNYwIT_l3yr6Y4g-FwE-51" vertex="1">
          <mxGeometry y="181" width="272" height="24" as="geometry" />
        </mxCell>
        <mxCell id="jhNYwIT_l3yr6Y4g-FwE-54" value="+ pathFrom: {property}" style="text;strokeColor=none;fillColor=none;align=left;verticalAlign=top;spacingLeft=4;spacingRight=4;overflow=hidden;rotatable=0;points=[[0,0.5],[1,0.5]];portConstraint=eastwest;whiteSpace=wrap;html=1;" parent="jhNYwIT_l3yr6Y4g-FwE-51" vertex="1">
          <mxGeometry y="205" width="272" height="26" as="geometry" />
        </mxCell>
        <mxCell id="j3eprIJC5bGNVLI8AkwU-50" value="+&amp;nbsp;folderID: {property}" style="text;strokeColor=none;fillColor=none;align=left;verticalAlign=top;spacingLeft=4;spacingRight=4;overflow=hidden;rotatable=0;points=[[0,0.5],[1,0.5]];portConstraint=eastwest;whiteSpace=wrap;html=1;" parent="jhNYwIT_l3yr6Y4g-FwE-51" vertex="1">
          <mxGeometry y="231" width="272" height="23" as="geometry" />
        </mxCell>
        <mxCell id="j3eprIJC5bGNVLI8AkwU-49" value="+&amp;nbsp;account: {property}" style="text;strokeColor=none;fillColor=none;align=left;verticalAlign=top;spacingLeft=4;spacingRight=4;overflow=hidden;rotatable=0;points=[[0,0.5],[1,0.5]];portConstraint=eastwest;whiteSpace=wrap;html=1;" parent="jhNYwIT_l3yr6Y4g-FwE-51" vertex="1">
          <mxGeometry y="254" width="272" height="23" as="geometry" />
        </mxCell>
        <mxCell id="j3eprIJC5bGNVLI8AkwU-48" value="+&amp;nbsp;time: {property}" style="text;strokeColor=none;fillColor=none;align=left;verticalAlign=top;spacingLeft=4;spacingRight=4;overflow=hidden;rotatable=0;points=[[0,0.5],[1,0.5]];portConstraint=eastwest;whiteSpace=wrap;html=1;" parent="jhNYwIT_l3yr6Y4g-FwE-51" vertex="1">
          <mxGeometry y="277" width="272" height="23" as="geometry" />
        </mxCell>
        <mxCell id="j3eprIJC5bGNVLI8AkwU-51" value="+&amp;nbsp;weekday: {property}" style="text;strokeColor=none;fillColor=none;align=left;verticalAlign=top;spacingLeft=4;spacingRight=4;overflow=hidden;rotatable=0;points=[[0,0.5],[1,0.5]];portConstraint=eastwest;whiteSpace=wrap;html=1;" parent="jhNYwIT_l3yr6Y4g-FwE-51" vertex="1">
          <mxGeometry y="300" width="272" height="23" as="geometry" />
        </mxCell>
        <mxCell id="j3eprIJC5bGNVLI8AkwU-52" value="+&amp;nbsp;dayOfMonth: {property}" style="text;strokeColor=none;fillColor=none;align=left;verticalAlign=top;spacingLeft=4;spacingRight=4;overflow=hidden;rotatable=0;points=[[0,0.5],[1,0.5]];portConstraint=eastwest;whiteSpace=wrap;html=1;" parent="jhNYwIT_l3yr6Y4g-FwE-51" vertex="1">
          <mxGeometry y="323" width="272" height="23" as="geometry" />
        </mxCell>
        <mxCell id="j3eprIJC5bGNVLI8AkwU-53" value="+ toRow(): list" style="text;strokeColor=none;fillColor=none;align=left;verticalAlign=top;spacingLeft=4;spacingRight=4;overflow=hidden;rotatable=0;points=[[0,0.5],[1,0.5]];portConstraint=eastwest;whiteSpace=wrap;html=1;" parent="jhNYwIT_l3yr6Y4g-FwE-51" vertex="1">
          <mxGeometry y="346" width="272" height="23" as="geometry" />
        </mxCell>
        <mxCell id="jhNYwIT_l3yr6Y4g-FwE-62" value="+ copy(): Rule" style="text;strokeColor=none;fillColor=none;align=left;verticalAlign=top;spacingLeft=4;spacingRight=4;overflow=hidden;rotatable=0;points=[[0,0.5],[1,0.5]];portConstraint=eastwest;whiteSpace=wrap;html=1;" parent="jhNYwIT_l3yr6Y4g-FwE-51" vertex="1">
          <mxGeometry y="369" width="272" height="23" as="geometry" />
        </mxCell>
        <mxCell id="j3eprIJC5bGNVLI8AkwU-54" value="+ __str__(): str" style="text;strokeColor=none;fillColor=none;align=left;verticalAlign=top;spacingLeft=4;spacingRight=4;overflow=hidden;rotatable=0;points=[[0,0.5],[1,0.5]];portConstraint=eastwest;whiteSpace=wrap;html=1;" parent="jhNYwIT_l3yr6Y4g-FwE-51" vertex="1">
          <mxGeometry y="392" width="272" height="23" as="geometry" />
        </mxCell>
        <mxCell id="j3eprIJC5bGNVLI8AkwU-55" value="+ _eq__(other: Rule): bool" style="text;strokeColor=none;fillColor=none;align=left;verticalAlign=top;spacingLeft=4;spacingRight=4;overflow=hidden;rotatable=0;points=[[0,0.5],[1,0.5]];portConstraint=eastwest;whiteSpace=wrap;html=1;" parent="jhNYwIT_l3yr6Y4g-FwE-51" vertex="1">
          <mxGeometry y="415" width="272" height="23" as="geometry" />
        </mxCell>
        <mxCell id="j3eprIJC5bGNVLI8AkwU-56" value="+ __hash__(): int" style="text;strokeColor=none;fillColor=none;align=left;verticalAlign=top;spacingLeft=4;spacingRight=4;overflow=hidden;rotatable=0;points=[[0,0.5],[1,0.5]];portConstraint=eastwest;whiteSpace=wrap;html=1;" parent="jhNYwIT_l3yr6Y4g-FwE-51" vertex="1">
          <mxGeometry y="438" width="272" height="23" as="geometry" />
        </mxCell>
        <mxCell id="j3eprIJC5bGNVLI8AkwU-57" value="MainWindow" style="swimlane;fontStyle=1;align=center;verticalAlign=top;childLayout=stackLayout;horizontal=1;startSize=26;horizontalStack=0;resizeParent=1;resizeParentMax=0;resizeLast=0;collapsible=1;marginBottom=0;whiteSpace=wrap;html=1;" parent="1" vertex="1">
          <mxGeometry x="74" y="-35" width="302" height="450" as="geometry">
            <mxRectangle x="-634" y="-6" width="104" height="26" as="alternateBounds" />
          </mxGeometry>
        </mxCell>
        <mxCell id="oFdiycqgnuYmv6bXf8W3-35" value="+ table: QTableWidget" style="text;strokeColor=none;fillColor=none;align=left;verticalAlign=top;spacingLeft=4;spacingRight=4;overflow=hidden;rotatable=0;points=[[0,0.5],[1,0.5]];portConstraint=eastwest;whiteSpace=wrap;html=1;" vertex="1" parent="j3eprIJC5bGNVLI8AkwU-57">
          <mxGeometry y="26" width="302" height="26" as="geometry" />
        </mxCell>
        <mxCell id="oFdiycqgnuYmv6bXf8W3-36" value="+ deleteSelectedRuleButton: QPushButton" style="text;strokeColor=none;fillColor=none;align=left;verticalAlign=top;spacingLeft=4;spacingRight=4;overflow=hidden;rotatable=0;points=[[0,0.5],[1,0.5]];portConstraint=eastwest;whiteSpace=wrap;html=1;" vertex="1" parent="j3eprIJC5bGNVLI8AkwU-57">
          <mxGeometry y="52" width="302" height="26" as="geometry" />
        </mxCell>
        <mxCell id="oFdiycqgnuYmv6bXf8W3-37" value="+ createRulesButton: QPushButton" style="text;strokeColor=none;fillColor=none;align=left;verticalAlign=top;spacingLeft=4;spacingRight=4;overflow=hidden;rotatable=0;points=[[0,0.5],[1,0.5]];portConstraint=eastwest;whiteSpace=wrap;html=1;" vertex="1" parent="j3eprIJC5bGNVLI8AkwU-57">
          <mxGeometry y="78" width="302" height="26" as="geometry" />
        </mxCell>
        <mxCell id="oFdiycqgnuYmv6bXf8W3-39" value="+ deleteTokenFileAction: QAction" style="text;strokeColor=none;fillColor=none;align=left;verticalAlign=top;spacingLeft=4;spacingRight=4;overflow=hidden;rotatable=0;points=[[0,0.5],[1,0.5]];portConstraint=eastwest;whiteSpace=wrap;html=1;" vertex="1" parent="j3eprIJC5bGNVLI8AkwU-57">
          <mxGeometry y="104" width="302" height="26" as="geometry" />
        </mxCell>
        <mxCell id="oFdiycqgnuYmv6bXf8W3-38" value="+ updateTable: QAction" style="text;strokeColor=none;fillColor=none;align=left;verticalAlign=top;spacingLeft=4;spacingRight=4;overflow=hidden;rotatable=0;points=[[0,0.5],[1,0.5]];portConstraint=eastwest;whiteSpace=wrap;html=1;" vertex="1" parent="j3eprIJC5bGNVLI8AkwU-57">
          <mxGeometry y="130" width="302" height="26" as="geometry" />
        </mxCell>
        <mxCell id="j3eprIJC5bGNVLI8AkwU-58" value="" style="line;strokeWidth=1;fillColor=none;align=left;verticalAlign=middle;spacingTop=-1;spacingLeft=3;spacingRight=3;rotatable=0;labelPosition=right;points=[];portConstraint=eastwest;strokeColor=inherit;" parent="j3eprIJC5bGNVLI8AkwU-57" vertex="1">
          <mxGeometry y="156" width="302" height="8" as="geometry" />
        </mxCell>
        <mxCell id="j3eprIJC5bGNVLI8AkwU-59" value="+ __init__(): None" style="text;strokeColor=none;fillColor=none;align=left;verticalAlign=top;spacingLeft=4;spacingRight=4;overflow=hidden;rotatable=0;points=[[0,0.5],[1,0.5]];portConstraint=eastwest;whiteSpace=wrap;html=1;" parent="j3eprIJC5bGNVLI8AkwU-57" vertex="1">
          <mxGeometry y="164" width="302" height="26" as="geometry" />
        </mxCell>
        <mxCell id="j3eprIJC5bGNVLI8AkwU-60" value="+ addRuleToRulesFile(): None" style="text;strokeColor=none;fillColor=none;align=left;verticalAlign=top;spacingLeft=4;spacingRight=4;overflow=hidden;rotatable=0;points=[[0,0.5],[1,0.5]];portConstraint=eastwest;whiteSpace=wrap;html=1;" parent="j3eprIJC5bGNVLI8AkwU-57" vertex="1">
          <mxGeometry y="190" width="302" height="26" as="geometry" />
        </mxCell>
        <mxCell id="j3eprIJC5bGNVLI8AkwU-62" value="+ closeApplication(): None" style="text;strokeColor=none;fillColor=none;align=left;verticalAlign=top;spacingLeft=4;spacingRight=4;overflow=hidden;rotatable=0;points=[[0,0.5],[1,0.5]];portConstraint=eastwest;whiteSpace=wrap;html=1;" parent="j3eprIJC5bGNVLI8AkwU-57" vertex="1">
          <mxGeometry y="216" width="302" height="26" as="geometry" />
        </mxCell>
        <mxCell id="j3eprIJC5bGNVLI8AkwU-63" value="+ closeEvent(): None" style="text;strokeColor=none;fillColor=none;align=left;verticalAlign=top;spacingLeft=4;spacingRight=4;overflow=hidden;rotatable=0;points=[[0,0.5],[1,0.5]];portConstraint=eastwest;whiteSpace=wrap;html=1;" parent="j3eprIJC5bGNVLI8AkwU-57" vertex="1">
          <mxGeometry y="242" width="302" height="26" as="geometry" />
        </mxCell>
        <mxCell id="j3eprIJC5bGNVLI8AkwU-64" value="+ iconClicked(): None" style="text;strokeColor=none;fillColor=none;align=left;verticalAlign=top;spacingLeft=4;spacingRight=4;overflow=hidden;rotatable=0;points=[[0,0.5],[1,0.5]];portConstraint=eastwest;whiteSpace=wrap;html=1;" parent="j3eprIJC5bGNVLI8AkwU-57" vertex="1">
          <mxGeometry y="268" width="302" height="26" as="geometry" />
        </mxCell>
        <mxCell id="j3eprIJC5bGNVLI8AkwU-72" value="+ getSelectedRow(): int" style="text;strokeColor=none;fillColor=none;align=left;verticalAlign=top;spacingLeft=4;spacingRight=4;overflow=hidden;rotatable=0;points=[[0,0.5],[1,0.5]];portConstraint=eastwest;whiteSpace=wrap;html=1;" parent="j3eprIJC5bGNVLI8AkwU-57" vertex="1">
          <mxGeometry y="294" width="302" height="26" as="geometry" />
        </mxCell>
        <mxCell id="j3eprIJC5bGNVLI8AkwU-73" value="+ getSelectedRuleFromTable(selectedRow: int): dict" style="text;strokeColor=none;fillColor=none;align=left;verticalAlign=top;spacingLeft=4;spacingRight=4;overflow=hidden;rotatable=0;points=[[0,0.5],[1,0.5]];portConstraint=eastwest;whiteSpace=wrap;html=1;" parent="j3eprIJC5bGNVLI8AkwU-57" vertex="1">
          <mxGeometry y="320" width="302" height="26" as="geometry" />
        </mxCell>
        <mxCell id="j3eprIJC5bGNVLI8AkwU-74" value="+ resetTable(): None" style="text;strokeColor=none;fillColor=none;align=left;verticalAlign=top;spacingLeft=4;spacingRight=4;overflow=hidden;rotatable=0;points=[[0,0.5],[1,0.5]];portConstraint=eastwest;whiteSpace=wrap;html=1;" parent="j3eprIJC5bGNVLI8AkwU-57" vertex="1">
          <mxGeometry y="346" width="302" height="26" as="geometry" />
        </mxCell>
        <mxCell id="j3eprIJC5bGNVLI8AkwU-75" value="+ selectRow(selectedRow: int): None" style="text;strokeColor=none;fillColor=none;align=left;verticalAlign=top;spacingLeft=4;spacingRight=4;overflow=hidden;rotatable=0;points=[[0,0.5],[1,0.5]];portConstraint=eastwest;whiteSpace=wrap;html=1;" parent="j3eprIJC5bGNVLI8AkwU-57" vertex="1">
          <mxGeometry y="372" width="302" height="26" as="geometry" />
        </mxCell>
        <mxCell id="j3eprIJC5bGNVLI8AkwU-65" value="- __resizeWindowInHalfOfScreen(self: QObject): None" style="text;strokeColor=none;fillColor=none;align=left;verticalAlign=top;spacingLeft=4;spacingRight=4;overflow=hidden;rotatable=0;points=[[0,0.5],[1,0.5]];portConstraint=eastwest;whiteSpace=wrap;html=1;" parent="j3eprIJC5bGNVLI8AkwU-57" vertex="1">
          <mxGeometry y="398" width="302" height="26" as="geometry" />
        </mxCell>
        <mxCell id="j3eprIJC5bGNVLI8AkwU-66" value="- __centerWindow(self: QObject): None" style="text;strokeColor=none;fillColor=none;align=left;verticalAlign=top;spacingLeft=4;spacingRight=4;overflow=hidden;rotatable=0;points=[[0,0.5],[1,0.5]];portConstraint=eastwest;whiteSpace=wrap;html=1;" parent="j3eprIJC5bGNVLI8AkwU-57" vertex="1">
          <mxGeometry y="424" width="302" height="26" as="geometry" />
        </mxCell>
        <mxCell id="j3eprIJC5bGNVLI8AkwU-76" value="CreationRuleWindow" style="swimlane;fontStyle=1;align=center;verticalAlign=top;childLayout=stackLayout;horizontal=1;startSize=23;horizontalStack=0;resizeParent=1;resizeParentMax=0;resizeLast=0;collapsible=1;marginBottom=0;whiteSpace=wrap;html=1;" parent="1" vertex="1">
          <mxGeometry x="-686" y="-146" width="246" height="466" as="geometry" />
        </mxCell>
        <mxCell id="oFdiycqgnuYmv6bXf8W3-24" value="+ pathFromInput: QLineEdit" style="text;strokeColor=none;fillColor=none;align=left;verticalAlign=top;spacingLeft=4;spacingRight=4;overflow=hidden;rotatable=0;points=[[0,0.5],[1,0.5]];portConstraint=eastwest;whiteSpace=wrap;html=1;" vertex="1" parent="j3eprIJC5bGNVLI8AkwU-76">
          <mxGeometry y="23" width="246" height="23" as="geometry" />
        </mxCell>
        <mxCell id="oFdiycqgnuYmv6bXf8W3-33" value="+ browsePathFromButton: QPushButton" style="text;strokeColor=none;fillColor=none;align=left;verticalAlign=top;spacingLeft=4;spacingRight=4;overflow=hidden;rotatable=0;points=[[0,0.5],[1,0.5]];portConstraint=eastwest;whiteSpace=wrap;html=1;" vertex="1" parent="j3eprIJC5bGNVLI8AkwU-76">
          <mxGeometry y="46" width="246" height="23" as="geometry" />
        </mxCell>
        <mxCell id="oFdiycqgnuYmv6bXf8W3-25" value="+ folderIDInput: QLineEdit" style="text;strokeColor=none;fillColor=none;align=left;verticalAlign=top;spacingLeft=4;spacingRight=4;overflow=hidden;rotatable=0;points=[[0,0.5],[1,0.5]];portConstraint=eastwest;whiteSpace=wrap;html=1;" vertex="1" parent="j3eprIJC5bGNVLI8AkwU-76">
          <mxGeometry y="69" width="246" height="23" as="geometry" />
        </mxCell>
        <mxCell id="oFdiycqgnuYmv6bXf8W3-32" value="+ browseFolderIDButton: QPushButton" style="text;strokeColor=none;fillColor=none;align=left;verticalAlign=top;spacingLeft=4;spacingRight=4;overflow=hidden;rotatable=0;points=[[0,0.5],[1,0.5]];portConstraint=eastwest;whiteSpace=wrap;html=1;" vertex="1" parent="j3eprIJC5bGNVLI8AkwU-76">
          <mxGeometry y="92" width="246" height="23" as="geometry" />
        </mxCell>
        <mxCell id="oFdiycqgnuYmv6bXf8W3-26" value="+ accountInput: QLineEdit" style="text;strokeColor=none;fillColor=none;align=left;verticalAlign=top;spacingLeft=4;spacingRight=4;overflow=hidden;rotatable=0;points=[[0,0.5],[1,0.5]];portConstraint=eastwest;whiteSpace=wrap;html=1;" vertex="1" parent="j3eprIJC5bGNVLI8AkwU-76">
          <mxGeometry y="115" width="246" height="23" as="geometry" />
        </mxCell>
        <mxCell id="oFdiycqgnuYmv6bXf8W3-27" value="+ timeEdit: QTimeEdit" style="text;strokeColor=none;fillColor=none;align=left;verticalAlign=top;spacingLeft=4;spacingRight=4;overflow=hidden;rotatable=0;points=[[0,0.5],[1,0.5]];portConstraint=eastwest;whiteSpace=wrap;html=1;" vertex="1" parent="j3eprIJC5bGNVLI8AkwU-76">
          <mxGeometry y="138" width="246" height="23" as="geometry" />
        </mxCell>
        <mxCell id="oFdiycqgnuYmv6bXf8W3-28" value="+ timeList: QTimeList" style="text;strokeColor=none;fillColor=none;align=left;verticalAlign=top;spacingLeft=4;spacingRight=4;overflow=hidden;rotatable=0;points=[[0,0.5],[1,0.5]];portConstraint=eastwest;whiteSpace=wrap;html=1;" vertex="1" parent="j3eprIJC5bGNVLI8AkwU-76">
          <mxGeometry y="161" width="246" height="23" as="geometry" />
        </mxCell>
        <mxCell id="oFdiycqgnuYmv6bXf8W3-30" value="+ weekdayComboBox: QComboBox" style="text;strokeColor=none;fillColor=none;align=left;verticalAlign=top;spacingLeft=4;spacingRight=4;overflow=hidden;rotatable=0;points=[[0,0.5],[1,0.5]];portConstraint=eastwest;whiteSpace=wrap;html=1;" vertex="1" parent="j3eprIJC5bGNVLI8AkwU-76">
          <mxGeometry y="184" width="246" height="23" as="geometry" />
        </mxCell>
        <mxCell id="oFdiycqgnuYmv6bXf8W3-31" value="+ dayOfMonthSpinBox: QSpinBox" style="text;strokeColor=none;fillColor=none;align=left;verticalAlign=top;spacingLeft=4;spacingRight=4;overflow=hidden;rotatable=0;points=[[0,0.5],[1,0.5]];portConstraint=eastwest;whiteSpace=wrap;html=1;" vertex="1" parent="j3eprIJC5bGNVLI8AkwU-76">
          <mxGeometry y="207" width="246" height="23" as="geometry" />
        </mxCell>
        <mxCell id="j3eprIJC5bGNVLI8AkwU-77" value="" style="line;strokeWidth=1;fillColor=none;align=left;verticalAlign=middle;spacingTop=-1;spacingLeft=3;spacingRight=3;rotatable=0;labelPosition=right;points=[];portConstraint=eastwest;strokeColor=inherit;" parent="j3eprIJC5bGNVLI8AkwU-76" vertex="1">
          <mxGeometry y="230" width="246" height="8" as="geometry" />
        </mxCell>
        <mxCell id="j3eprIJC5bGNVLI8AkwU-78" value="+ __init__(driveService): None" style="text;strokeColor=none;fillColor=none;align=left;verticalAlign=top;spacingLeft=4;spacingRight=4;overflow=hidden;rotatable=0;points=[[0,0.5],[1,0.5]];portConstraint=eastwest;whiteSpace=wrap;html=1;" parent="j3eprIJC5bGNVLI8AkwU-76" vertex="1">
          <mxGeometry y="238" width="246" height="26" as="geometry" />
        </mxCell>
        <mxCell id="j3eprIJC5bGNVLI8AkwU-79" value="+ addTime(): None" style="text;strokeColor=none;fillColor=none;align=left;verticalAlign=top;spacingLeft=4;spacingRight=4;overflow=hidden;rotatable=0;points=[[0,0.5],[1,0.5]];portConstraint=eastwest;whiteSpace=wrap;html=1;" parent="j3eprIJC5bGNVLI8AkwU-76" vertex="1">
          <mxGeometry y="264" width="246" height="23" as="geometry" />
        </mxCell>
        <mxCell id="j3eprIJC5bGNVLI8AkwU-81" value="+ eventFilter(source, event): bool" style="text;strokeColor=none;fillColor=none;align=left;verticalAlign=top;spacingLeft=4;spacingRight=4;overflow=hidden;rotatable=0;points=[[0,0.5],[1,0.5]];portConstraint=eastwest;whiteSpace=wrap;html=1;" parent="j3eprIJC5bGNVLI8AkwU-76" vertex="1">
          <mxGeometry y="287" width="246" height="26" as="geometry" />
        </mxCell>
        <mxCell id="j3eprIJC5bGNVLI8AkwU-82" value="+ removeSelectedTime(): None" style="text;strokeColor=none;fillColor=none;align=left;verticalAlign=top;spacingLeft=4;spacingRight=4;overflow=hidden;rotatable=0;points=[[0,0.5],[1,0.5]];portConstraint=eastwest;whiteSpace=wrap;html=1;" parent="j3eprIJC5bGNVLI8AkwU-76" vertex="1">
          <mxGeometry y="313" width="246" height="26" as="geometry" />
        </mxCell>
        <mxCell id="j3eprIJC5bGNVLI8AkwU-83" value="+ selectFolder(): None" style="text;strokeColor=none;fillColor=none;align=left;verticalAlign=top;spacingLeft=4;spacingRight=4;overflow=hidden;rotatable=0;points=[[0,0.5],[1,0.5]];portConstraint=eastwest;whiteSpace=wrap;html=1;" parent="j3eprIJC5bGNVLI8AkwU-76" vertex="1">
          <mxGeometry y="339" width="246" height="26" as="geometry" />
        </mxCell>
        <mxCell id="oFdiycqgnuYmv6bXf8W3-23" value="+ selecGoogletFolder(): None" style="text;strokeColor=none;fillColor=none;align=left;verticalAlign=top;spacingLeft=4;spacingRight=4;overflow=hidden;rotatable=0;points=[[0,0.5],[1,0.5]];portConstraint=eastwest;whiteSpace=wrap;html=1;" vertex="1" parent="j3eprIJC5bGNVLI8AkwU-76">
          <mxGeometry y="365" width="246" height="26" as="geometry" />
        </mxCell>
        <mxCell id="j3eprIJC5bGNVLI8AkwU-85" value="+ toggleWeekday(value: int): None" style="text;strokeColor=none;fillColor=none;align=left;verticalAlign=top;spacingLeft=4;spacingRight=4;overflow=hidden;rotatable=0;points=[[0,0.5],[1,0.5]];portConstraint=eastwest;whiteSpace=wrap;html=1;" parent="j3eprIJC5bGNVLI8AkwU-76" vertex="1">
          <mxGeometry y="391" width="246" height="26" as="geometry" />
        </mxCell>
        <mxCell id="j3eprIJC5bGNVLI8AkwU-84" value="+ toggleDayOfMonth(text: str): None" style="text;strokeColor=none;fillColor=none;align=left;verticalAlign=top;spacingLeft=4;spacingRight=4;overflow=hidden;rotatable=0;points=[[0,0.5],[1,0.5]];portConstraint=eastwest;whiteSpace=wrap;html=1;" parent="j3eprIJC5bGNVLI8AkwU-76" vertex="1">
          <mxGeometry y="417" width="246" height="26" as="geometry" />
        </mxCell>
        <mxCell id="j3eprIJC5bGNVLI8AkwU-80" value="+ getInputs(): dict" style="text;strokeColor=none;fillColor=none;align=left;verticalAlign=top;spacingLeft=4;spacingRight=4;overflow=hidden;rotatable=0;points=[[0,0.5],[1,0.5]];portConstraint=eastwest;whiteSpace=wrap;html=1;" parent="j3eprIJC5bGNVLI8AkwU-76" vertex="1">
          <mxGeometry y="443" width="246" height="23" as="geometry" />
        </mxCell>
        <mxCell id="j3eprIJC5bGNVLI8AkwU-86" value="RuleRepository" style="swimlane;fontStyle=1;align=center;verticalAlign=top;childLayout=stackLayout;horizontal=1;startSize=23;horizontalStack=0;resizeParent=1;resizeParentMax=0;resizeLast=0;collapsible=1;marginBottom=0;whiteSpace=wrap;html=1;" parent="1" vertex="1">
          <mxGeometry x="-704" y="468" width="264" height="132" as="geometry">
            <mxRectangle x="-2361" y="33" width="145" height="26" as="alternateBounds" />
          </mxGeometry>
        </mxCell>
        <mxCell id="j3eprIJC5bGNVLI8AkwU-87" value="" style="line;strokeWidth=1;fillColor=none;align=left;verticalAlign=middle;spacingTop=-1;spacingLeft=3;spacingRight=3;rotatable=0;labelPosition=right;points=[];portConstraint=eastwest;strokeColor=inherit;" parent="j3eprIJC5bGNVLI8AkwU-86" vertex="1">
          <mxGeometry y="23" width="264" height="8" as="geometry" />
        </mxCell>
        <mxCell id="j3eprIJC5bGNVLI8AkwU-89" value="+ loadRules(): list[Rule]" style="text;strokeColor=none;fillColor=none;align=left;verticalAlign=top;spacingLeft=4;spacingRight=4;overflow=hidden;rotatable=0;points=[[0,0.5],[1,0.5]];portConstraint=eastwest;whiteSpace=wrap;html=1;" parent="j3eprIJC5bGNVLI8AkwU-86" vertex="1">
          <mxGeometry y="31" width="264" height="23" as="geometry" />
        </mxCell>
        <mxCell id="j3eprIJC5bGNVLI8AkwU-90" value="+ saveRules(listOfRules: list[Rule]): None" style="text;strokeColor=none;fillColor=none;align=left;verticalAlign=top;spacingLeft=4;spacingRight=4;overflow=hidden;rotatable=0;points=[[0,0.5],[1,0.5]];portConstraint=eastwest;whiteSpace=wrap;html=1;" parent="j3eprIJC5bGNVLI8AkwU-86" vertex="1">
          <mxGeometry y="54" width="264" height="26" as="geometry" />
        </mxCell>
        <mxCell id="j3eprIJC5bGNVLI8AkwU-91" value="+ deleteRule(rule: Rule): None" style="text;strokeColor=none;fillColor=none;align=left;verticalAlign=top;spacingLeft=4;spacingRight=4;overflow=hidden;rotatable=0;points=[[0,0.5],[1,0.5]];portConstraint=eastwest;whiteSpace=wrap;html=1;" parent="j3eprIJC5bGNVLI8AkwU-86" vertex="1">
          <mxGeometry y="80" width="264" height="26" as="geometry" />
        </mxCell>
        <mxCell id="j3eprIJC5bGNVLI8AkwU-92" value="+ saveUniqueRules(newRules: list[Rule]): None" style="text;strokeColor=none;fillColor=none;align=left;verticalAlign=top;spacingLeft=4;spacingRight=4;overflow=hidden;rotatable=0;points=[[0,0.5],[1,0.5]];portConstraint=eastwest;whiteSpace=wrap;html=1;" parent="j3eprIJC5bGNVLI8AkwU-86" vertex="1">
          <mxGeometry y="106" width="264" height="26" as="geometry" />
        </mxCell>
        <mxCell id="j3eprIJC5bGNVLI8AkwU-96" value="CredentialsRepository" style="swimlane;fontStyle=1;align=center;verticalAlign=top;childLayout=stackLayout;horizontal=1;startSize=23;horizontalStack=0;resizeParent=1;resizeParentMax=0;resizeLast=0;collapsible=1;marginBottom=0;whiteSpace=wrap;html=1;" parent="1" vertex="1">
          <mxGeometry x="-716" y="339" width="276" height="106" as="geometry" />
        </mxCell>
        <mxCell id="j3eprIJC5bGNVLI8AkwU-97" value="" style="line;strokeWidth=1;fillColor=none;align=left;verticalAlign=middle;spacingTop=-1;spacingLeft=3;spacingRight=3;rotatable=0;labelPosition=right;points=[];portConstraint=eastwest;strokeColor=inherit;" parent="j3eprIJC5bGNVLI8AkwU-96" vertex="1">
          <mxGeometry y="23" width="276" height="8" as="geometry" />
        </mxCell>
        <mxCell id="j3eprIJC5bGNVLI8AkwU-98" value="+ loadCredentials(): Credentials" style="text;strokeColor=none;fillColor=none;align=left;verticalAlign=top;spacingLeft=4;spacingRight=4;overflow=hidden;rotatable=0;points=[[0,0.5],[1,0.5]];portConstraint=eastwest;whiteSpace=wrap;html=1;" parent="j3eprIJC5bGNVLI8AkwU-96" vertex="1">
          <mxGeometry y="31" width="276" height="23" as="geometry" />
        </mxCell>
        <mxCell id="j3eprIJC5bGNVLI8AkwU-99" value="+ saveCredentials(credentials: Credentials): None" style="text;strokeColor=none;fillColor=none;align=left;verticalAlign=top;spacingLeft=4;spacingRight=4;overflow=hidden;rotatable=0;points=[[0,0.5],[1,0.5]];portConstraint=eastwest;whiteSpace=wrap;html=1;" parent="j3eprIJC5bGNVLI8AkwU-96" vertex="1">
          <mxGeometry y="54" width="276" height="26" as="geometry" />
        </mxCell>
        <mxCell id="j3eprIJC5bGNVLI8AkwU-100" value="+ deleteTokenFile(): None" style="text;strokeColor=none;fillColor=none;align=left;verticalAlign=top;spacingLeft=4;spacingRight=4;overflow=hidden;rotatable=0;points=[[0,0.5],[1,0.5]];portConstraint=eastwest;whiteSpace=wrap;html=1;" parent="j3eprIJC5bGNVLI8AkwU-96" vertex="1">
          <mxGeometry y="80" width="276" height="26" as="geometry" />
        </mxCell>
        <mxCell id="j3eprIJC5bGNVLI8AkwU-102" value="&amp;lt;&amp;lt;GoogleAuthService&amp;gt;&amp;gt;" style="swimlane;fontStyle=1;align=center;verticalAlign=top;childLayout=stackLayout;horizontal=1;startSize=23;horizontalStack=0;resizeParent=1;resizeParentMax=0;resizeLast=0;collapsible=1;marginBottom=0;whiteSpace=wrap;html=1;" parent="1" vertex="1">
          <mxGeometry x="-320" y="26" width="312" height="54" as="geometry" />
        </mxCell>
        <mxCell id="j3eprIJC5bGNVLI8AkwU-103" value="" style="line;strokeWidth=1;fillColor=none;align=left;verticalAlign=middle;spacingTop=-1;spacingLeft=3;spacingRight=3;rotatable=0;labelPosition=right;points=[];portConstraint=eastwest;strokeColor=inherit;" parent="j3eprIJC5bGNVLI8AkwU-102" vertex="1">
          <mxGeometry y="23" width="312" height="8" as="geometry" />
        </mxCell>
        <mxCell id="j3eprIJC5bGNVLI8AkwU-104" value="+ &lt;u&gt;getAutorizedService&lt;/u&gt;(credentials: Credentials): Service" style="text;strokeColor=none;fillColor=none;align=left;verticalAlign=top;spacingLeft=4;spacingRight=4;overflow=hidden;rotatable=0;points=[[0,0.5],[1,0.5]];portConstraint=eastwest;whiteSpace=wrap;html=1;" parent="j3eprIJC5bGNVLI8AkwU-102" vertex="1">
          <mxGeometry y="31" width="312" height="23" as="geometry" />
        </mxCell>
        <mxCell id="j3eprIJC5bGNVLI8AkwU-107" value="CreationRuleController" style="swimlane;fontStyle=1;align=center;verticalAlign=top;childLayout=stackLayout;horizontal=1;startSize=23;horizontalStack=0;resizeParent=1;resizeParentMax=0;resizeLast=0;collapsible=1;marginBottom=0;whiteSpace=wrap;html=1;" parent="1" vertex="1">
          <mxGeometry x="-817" y="-338" width="377" height="158" as="geometry" />
        </mxCell>
        <mxCell id="oFdiycqgnuYmv6bXf8W3-21" value="+ view: CreationRuleWindow" style="text;strokeColor=none;fillColor=none;align=left;verticalAlign=top;spacingLeft=4;spacingRight=4;overflow=hidden;rotatable=0;points=[[0,0.5],[1,0.5]];portConstraint=eastwest;whiteSpace=wrap;html=1;" vertex="1" parent="j3eprIJC5bGNVLI8AkwU-107">
          <mxGeometry y="23" width="377" height="26" as="geometry" />
        </mxCell>
        <mxCell id="oFdiycqgnuYmv6bXf8W3-22" value=" + model: RuleRepository" style="text;strokeColor=none;fillColor=none;align=left;verticalAlign=top;spacingLeft=4;spacingRight=4;overflow=hidden;rotatable=0;points=[[0,0.5],[1,0.5]];portConstraint=eastwest;whiteSpace=wrap;html=1;" vertex="1" parent="j3eprIJC5bGNVLI8AkwU-107">
          <mxGeometry y="49" width="377" height="26" as="geometry" />
        </mxCell>
        <mxCell id="j3eprIJC5bGNVLI8AkwU-108" value="" style="line;strokeWidth=1;fillColor=none;align=left;verticalAlign=middle;spacingTop=-1;spacingLeft=3;spacingRight=3;rotatable=0;labelPosition=right;points=[];portConstraint=eastwest;strokeColor=inherit;" parent="j3eprIJC5bGNVLI8AkwU-107" vertex="1">
          <mxGeometry y="75" width="377" height="8" as="geometry" />
        </mxCell>
        <mxCell id="j3eprIJC5bGNVLI8AkwU-109" value="+ __init__(...): None" style="text;strokeColor=none;fillColor=none;align=left;verticalAlign=top;spacingLeft=4;spacingRight=4;overflow=hidden;rotatable=0;points=[[0,0.5],[1,0.5]];portConstraint=eastwest;whiteSpace=wrap;html=1;" parent="j3eprIJC5bGNVLI8AkwU-107" vertex="1">
          <mxGeometry y="83" width="377" height="26" as="geometry" />
        </mxCell>
        <mxCell id="j3eprIJC5bGNVLI8AkwU-110" value="+ addRules(): None" style="text;strokeColor=none;fillColor=none;align=left;verticalAlign=top;spacingLeft=4;spacingRight=4;overflow=hidden;rotatable=0;points=[[0,0.5],[1,0.5]];portConstraint=eastwest;whiteSpace=wrap;html=1;" parent="j3eprIJC5bGNVLI8AkwU-107" vertex="1">
          <mxGeometry y="109" width="377" height="23" as="geometry" />
        </mxCell>
        <mxCell id="j3eprIJC5bGNVLI8AkwU-111" value="+ getRuleData(): list[Rule]" style="text;strokeColor=none;fillColor=none;align=left;verticalAlign=top;spacingLeft=4;spacingRight=4;overflow=hidden;rotatable=0;points=[[0,0.5],[1,0.5]];portConstraint=eastwest;whiteSpace=wrap;html=1;" parent="j3eprIJC5bGNVLI8AkwU-107" vertex="1">
          <mxGeometry y="132" width="377" height="26" as="geometry" />
        </mxCell>
        <mxCell id="j3eprIJC5bGNVLI8AkwU-117" value="logger" style="swimlane;fontStyle=1;align=center;verticalAlign=top;childLayout=stackLayout;horizontal=1;startSize=23;horizontalStack=0;resizeParent=1;resizeParentMax=0;resizeLast=0;collapsible=1;marginBottom=0;whiteSpace=wrap;html=1;" parent="1" vertex="1" collapsed="1">
          <mxGeometry x="-415" y="-338" width="68" height="26" as="geometry">
            <mxRectangle x="-2868" y="59" width="87" height="31" as="alternateBounds" />
          </mxGeometry>
        </mxCell>
        <mxCell id="j3eprIJC5bGNVLI8AkwU-118" value="" style="line;strokeWidth=1;fillColor=none;align=left;verticalAlign=middle;spacingTop=-1;spacingLeft=3;spacingRight=3;rotatable=0;labelPosition=right;points=[];portConstraint=eastwest;strokeColor=inherit;" parent="j3eprIJC5bGNVLI8AkwU-117" vertex="1">
          <mxGeometry y="23" width="87" height="8" as="geometry" />
        </mxCell>
        <mxCell id="j3eprIJC5bGNVLI8AkwU-122" value="ApplicationController" style="swimlane;fontStyle=1;align=center;verticalAlign=top;childLayout=stackLayout;horizontal=1;startSize=23;horizontalStack=0;resizeParent=1;resizeParentMax=0;resizeLast=0;collapsible=1;marginBottom=0;whiteSpace=wrap;html=1;" parent="1" vertex="1">
          <mxGeometry x="-322" y="-338" width="316" height="318" as="geometry" />
        </mxCell>
        <mxCell id="oFdiycqgnuYmv6bXf8W3-16" value="+ view: MainWindow" style="text;strokeColor=none;fillColor=none;align=left;verticalAlign=top;spacingLeft=4;spacingRight=4;overflow=hidden;rotatable=0;points=[[0,0.5],[1,0.5]];portConstraint=eastwest;whiteSpace=wrap;html=1;" vertex="1" parent="j3eprIJC5bGNVLI8AkwU-122">
          <mxGeometry y="23" width="316" height="23" as="geometry" />
        </mxCell>
        <mxCell id="oFdiycqgnuYmv6bXf8W3-17" value="+ ruleModel: RuleRepository" style="text;strokeColor=none;fillColor=none;align=left;verticalAlign=top;spacingLeft=4;spacingRight=4;overflow=hidden;rotatable=0;points=[[0,0.5],[1,0.5]];portConstraint=eastwest;whiteSpace=wrap;html=1;" vertex="1" parent="j3eprIJC5bGNVLI8AkwU-122">
          <mxGeometry y="46" width="316" height="23" as="geometry" />
        </mxCell>
        <mxCell id="oFdiycqgnuYmv6bXf8W3-18" value="+ credentialsModel: CredentialsRepository" style="text;strokeColor=none;fillColor=none;align=left;verticalAlign=top;spacingLeft=4;spacingRight=4;overflow=hidden;rotatable=0;points=[[0,0.5],[1,0.5]];portConstraint=eastwest;whiteSpace=wrap;html=1;" vertex="1" parent="j3eprIJC5bGNVLI8AkwU-122">
          <mxGeometry y="69" width="316" height="23" as="geometry" />
        </mxCell>
        <mxCell id="oFdiycqgnuYmv6bXf8W3-19" value=" + worker: FileCopyWorker" style="text;strokeColor=none;fillColor=none;align=left;verticalAlign=top;spacingLeft=4;spacingRight=4;overflow=hidden;rotatable=0;points=[[0,0.5],[1,0.5]];portConstraint=eastwest;whiteSpace=wrap;html=1;" vertex="1" parent="j3eprIJC5bGNVLI8AkwU-122">
          <mxGeometry y="92" width="316" height="23" as="geometry" />
        </mxCell>
        <mxCell id="oFdiycqgnuYmv6bXf8W3-20" value=" + driveService" style="text;strokeColor=none;fillColor=none;align=left;verticalAlign=top;spacingLeft=4;spacingRight=4;overflow=hidden;rotatable=0;points=[[0,0.5],[1,0.5]];portConstraint=eastwest;whiteSpace=wrap;html=1;" vertex="1" parent="j3eprIJC5bGNVLI8AkwU-122">
          <mxGeometry y="115" width="316" height="23" as="geometry" />
        </mxCell>
        <mxCell id="j3eprIJC5bGNVLI8AkwU-123" value="" style="line;strokeWidth=1;fillColor=none;align=left;verticalAlign=middle;spacingTop=-1;spacingLeft=3;spacingRight=3;rotatable=0;labelPosition=right;points=[];portConstraint=eastwest;strokeColor=inherit;" parent="j3eprIJC5bGNVLI8AkwU-122" vertex="1">
          <mxGeometry y="138" width="316" height="8" as="geometry" />
        </mxCell>
        <mxCell id="j3eprIJC5bGNVLI8AkwU-124" value="+ __init__(...): None" style="text;strokeColor=none;fillColor=none;align=left;verticalAlign=top;spacingLeft=4;spacingRight=4;overflow=hidden;rotatable=0;points=[[0,0.5],[1,0.5]];portConstraint=eastwest;whiteSpace=wrap;html=1;" parent="j3eprIJC5bGNVLI8AkwU-122" vertex="1">
          <mxGeometry y="146" width="316" height="19" as="geometry" />
        </mxCell>
        <mxCell id="j3eprIJC5bGNVLI8AkwU-125" value="+ displayCreationRuleWindow(): None" style="text;strokeColor=none;fillColor=none;align=left;verticalAlign=top;spacingLeft=4;spacingRight=4;overflow=hidden;rotatable=0;points=[[0,0.5],[1,0.5]];portConstraint=eastwest;whiteSpace=wrap;html=1;" parent="j3eprIJC5bGNVLI8AkwU-122" vertex="1">
          <mxGeometry y="165" width="316" height="23" as="geometry" />
        </mxCell>
        <mxCell id="j3eprIJC5bGNVLI8AkwU-126" value="+ loadRulesToTable(): None" style="text;strokeColor=none;fillColor=none;align=left;verticalAlign=top;spacingLeft=4;spacingRight=4;overflow=hidden;rotatable=0;points=[[0,0.5],[1,0.5]];portConstraint=eastwest;whiteSpace=wrap;html=1;" parent="j3eprIJC5bGNVLI8AkwU-122" vertex="1">
          <mxGeometry y="188" width="316" height="26" as="geometry" />
        </mxCell>
        <mxCell id="j3eprIJC5bGNVLI8AkwU-127" value="+ deleteSelectedRuleFromTable(): None" style="text;strokeColor=none;fillColor=none;align=left;verticalAlign=top;spacingLeft=4;spacingRight=4;overflow=hidden;rotatable=0;points=[[0,0.5],[1,0.5]];portConstraint=eastwest;whiteSpace=wrap;html=1;" parent="j3eprIJC5bGNVLI8AkwU-122" vertex="1">
          <mxGeometry y="214" width="316" height="26" as="geometry" />
        </mxCell>
        <mxCell id="j3eprIJC5bGNVLI8AkwU-128" value="+ deleteTokenFile(): None" style="text;strokeColor=none;fillColor=none;align=left;verticalAlign=top;spacingLeft=4;spacingRight=4;overflow=hidden;rotatable=0;points=[[0,0.5],[1,0.5]];portConstraint=eastwest;whiteSpace=wrap;html=1;" parent="j3eprIJC5bGNVLI8AkwU-122" vertex="1">
          <mxGeometry y="240" width="316" height="26" as="geometry" />
        </mxCell>
        <mxCell id="j3eprIJC5bGNVLI8AkwU-129" value="+ updateTable(): None" style="text;strokeColor=none;fillColor=none;align=left;verticalAlign=top;spacingLeft=4;spacingRight=4;overflow=hidden;rotatable=0;points=[[0,0.5],[1,0.5]];portConstraint=eastwest;whiteSpace=wrap;html=1;" parent="j3eprIJC5bGNVLI8AkwU-122" vertex="1">
          <mxGeometry y="266" width="316" height="26" as="geometry" />
        </mxCell>
        <mxCell id="oFdiycqgnuYmv6bXf8W3-1" value="+ handleWorkerError(exception): None" style="text;strokeColor=none;fillColor=none;align=left;verticalAlign=top;spacingLeft=4;spacingRight=4;overflow=hidden;rotatable=0;points=[[0,0.5],[1,0.5]];portConstraint=eastwest;whiteSpace=wrap;html=1;" vertex="1" parent="j3eprIJC5bGNVLI8AkwU-122">
          <mxGeometry y="292" width="316" height="26" as="geometry" />
        </mxCell>
        <mxCell id="j3eprIJC5bGNVLI8AkwU-130" value="FileCopyWorker" style="swimlane;fontStyle=1;align=center;verticalAlign=top;childLayout=stackLayout;horizontal=1;startSize=26;horizontalStack=0;resizeParent=1;resizeParentMax=0;resizeLast=0;collapsible=1;marginBottom=0;whiteSpace=wrap;html=1;" parent="1" vertex="1">
          <mxGeometry x="55" y="-338" width="321" height="268" as="geometry" />
        </mxCell>
        <mxCell id="j3eprIJC5bGNVLI8AkwU-131" value="+ updateSignal: pyqtSignal" style="text;strokeColor=none;fillColor=none;align=left;verticalAlign=top;spacingLeft=4;spacingRight=4;overflow=hidden;rotatable=0;points=[[0,0.5],[1,0.5]];portConstraint=eastwest;whiteSpace=wrap;html=1;" parent="j3eprIJC5bGNVLI8AkwU-130" vertex="1">
          <mxGeometry y="26" width="321" height="26" as="geometry" />
        </mxCell>
        <mxCell id="oFdiycqgnuYmv6bXf8W3-15" value="+ errorOccured: pyqtSignal" style="text;strokeColor=none;fillColor=none;align=left;verticalAlign=top;spacingLeft=4;spacingRight=4;overflow=hidden;rotatable=0;points=[[0,0.5],[1,0.5]];portConstraint=eastwest;whiteSpace=wrap;html=1;" vertex="1" parent="j3eprIJC5bGNVLI8AkwU-130">
          <mxGeometry y="52" width="321" height="26" as="geometry" />
        </mxCell>
        <mxCell id="oFdiycqgnuYmv6bXf8W3-14" value="+ driveService: Service" style="text;strokeColor=none;fillColor=none;align=left;verticalAlign=top;spacingLeft=4;spacingRight=4;overflow=hidden;rotatable=0;points=[[0,0.5],[1,0.5]];portConstraint=eastwest;whiteSpace=wrap;html=1;" vertex="1" parent="j3eprIJC5bGNVLI8AkwU-130">
          <mxGeometry y="78" width="321" height="26" as="geometry" />
        </mxCell>
        <mxCell id="j3eprIJC5bGNVLI8AkwU-138" value="+ listOfRules: list[Rule]" style="text;strokeColor=none;fillColor=none;align=left;verticalAlign=top;spacingLeft=4;spacingRight=4;overflow=hidden;rotatable=0;points=[[0,0.5],[1,0.5]];portConstraint=eastwest;whiteSpace=wrap;html=1;" parent="j3eprIJC5bGNVLI8AkwU-130" vertex="1">
          <mxGeometry y="104" width="321" height="26" as="geometry" />
        </mxCell>
        <mxCell id="j3eprIJC5bGNVLI8AkwU-132" value="" style="line;strokeWidth=1;fillColor=none;align=left;verticalAlign=middle;spacingTop=-1;spacingLeft=3;spacingRight=3;rotatable=0;labelPosition=right;points=[];portConstraint=eastwest;strokeColor=inherit;" parent="j3eprIJC5bGNVLI8AkwU-130" vertex="1">
          <mxGeometry y="130" width="321" height="8" as="geometry" />
        </mxCell>
        <mxCell id="j3eprIJC5bGNVLI8AkwU-133" value="&lt;div&gt;+ __init__(driveService, listOfRules: list): None&lt;/div&gt;" style="text;strokeColor=none;fillColor=none;align=left;verticalAlign=top;spacingLeft=4;spacingRight=4;overflow=hidden;rotatable=0;points=[[0,0.5],[1,0.5]];portConstraint=eastwest;whiteSpace=wrap;html=1;" parent="j3eprIJC5bGNVLI8AkwU-130" vertex="1">
          <mxGeometry y="138" width="321" height="26" as="geometry" />
        </mxCell>
        <mxCell id="j3eprIJC5bGNVLI8AkwU-134" value="&lt;div&gt;+ run(): None&lt;/div&gt;" style="text;strokeColor=none;fillColor=none;align=left;verticalAlign=top;spacingLeft=4;spacingRight=4;overflow=hidden;rotatable=0;points=[[0,0.5],[1,0.5]];portConstraint=eastwest;whiteSpace=wrap;html=1;" parent="j3eprIJC5bGNVLI8AkwU-130" vertex="1">
          <mxGeometry y="164" width="321" height="26" as="geometry" />
        </mxCell>
        <mxCell id="j3eprIJC5bGNVLI8AkwU-135" value="&lt;div&gt;- __uploadToGoogleDrive(source: list, folderID: str): None&lt;/div&gt;" style="text;strokeColor=none;fillColor=none;align=left;verticalAlign=top;spacingLeft=4;spacingRight=4;overflow=hidden;rotatable=0;points=[[0,0.5],[1,0.5]];portConstraint=eastwest;whiteSpace=wrap;html=1;" parent="j3eprIJC5bGNVLI8AkwU-130" vertex="1">
          <mxGeometry y="190" width="321" height="26" as="geometry" />
        </mxCell>
        <mxCell id="j3eprIJC5bGNVLI8AkwU-136" value="&lt;div&gt;- __uploadFile(filePath: list, folderID: str): None&lt;/div&gt;" style="text;strokeColor=none;fillColor=none;align=left;verticalAlign=top;spacingLeft=4;spacingRight=4;overflow=hidden;rotatable=0;points=[[0,0.5],[1,0.5]];portConstraint=eastwest;whiteSpace=wrap;html=1;" parent="j3eprIJC5bGNVLI8AkwU-130" vertex="1">
          <mxGeometry y="216" width="321" height="26" as="geometry" />
        </mxCell>
        <mxCell id="j3eprIJC5bGNVLI8AkwU-137" value="&lt;div&gt;- __isFolderIDExists(folderID: str): bool&lt;/div&gt;" style="text;strokeColor=none;fillColor=none;align=left;verticalAlign=top;spacingLeft=4;spacingRight=4;overflow=hidden;rotatable=0;points=[[0,0.5],[1,0.5]];portConstraint=eastwest;whiteSpace=wrap;html=1;" parent="j3eprIJC5bGNVLI8AkwU-130" vertex="1">
          <mxGeometry y="242" width="321" height="26" as="geometry" />
        </mxCell>
        <mxCell id="j3eprIJC5bGNVLI8AkwU-139" value="Class Diagram (MVC arch.)" style="shape=umlFrame;whiteSpace=wrap;html=1;pointerEvents=0;width=232;height=60;" parent="1" vertex="1">
          <mxGeometry x="-1106" y="-345" width="1488" height="949" as="geometry" />
        </mxCell>
        <mxCell id="oFdiycqgnuYmv6bXf8W3-4" value="Use" style="endArrow=open;endSize=12;dashed=1;html=1;rounded=0;" edge="1" parent="1" source="j3eprIJC5bGNVLI8AkwU-122" target="j3eprIJC5bGNVLI8AkwU-102">
          <mxGeometry width="160" relative="1" as="geometry">
            <mxPoint x="-527" y="83" as="sourcePoint" />
            <mxPoint x="-367" y="83" as="targetPoint" />
          </mxGeometry>
        </mxCell>
        <mxCell id="oFdiycqgnuYmv6bXf8W3-40" value="GoogleDriveFolderPicker" style="swimlane;fontStyle=1;align=center;verticalAlign=top;childLayout=stackLayout;horizontal=1;startSize=26;horizontalStack=0;resizeParent=1;resizeParentMax=0;resizeLast=0;collapsible=1;marginBottom=0;whiteSpace=wrap;html=1;" vertex="1" parent="1">
          <mxGeometry x="-1055.5" y="-120" width="321" height="265" as="geometry" />
        </mxCell>
        <mxCell id="oFdiycqgnuYmv6bXf8W3-41" value="+ folderSelected: pyqtSignal" style="text;strokeColor=none;fillColor=none;align=left;verticalAlign=top;spacingLeft=4;spacingRight=4;overflow=hidden;rotatable=0;points=[[0,0.5],[1,0.5]];portConstraint=eastwest;whiteSpace=wrap;html=1;" vertex="1" parent="oFdiycqgnuYmv6bXf8W3-40">
          <mxGeometry y="26" width="321" height="26" as="geometry" />
        </mxCell>
        <mxCell id="oFdiycqgnuYmv6bXf8W3-42" value="+ tree: QTreeWidget" style="text;strokeColor=none;fillColor=none;align=left;verticalAlign=top;spacingLeft=4;spacingRight=4;overflow=hidden;rotatable=0;points=[[0,0.5],[1,0.5]];portConstraint=eastwest;whiteSpace=wrap;html=1;" vertex="1" parent="oFdiycqgnuYmv6bXf8W3-40">
          <mxGeometry y="52" width="321" height="26" as="geometry" />
        </mxCell>
        <mxCell id="oFdiycqgnuYmv6bXf8W3-43" value="+ driveService: Service" style="text;strokeColor=none;fillColor=none;align=left;verticalAlign=top;spacingLeft=4;spacingRight=4;overflow=hidden;rotatable=0;points=[[0,0.5],[1,0.5]];portConstraint=eastwest;whiteSpace=wrap;html=1;" vertex="1" parent="oFdiycqgnuYmv6bXf8W3-40">
          <mxGeometry y="78" width="321" height="26" as="geometry" />
        </mxCell>
        <mxCell id="oFdiycqgnuYmv6bXf8W3-51" value="+ confirmButton: QPushButton" style="text;strokeColor=none;fillColor=none;align=left;verticalAlign=top;spacingLeft=4;spacingRight=4;overflow=hidden;rotatable=0;points=[[0,0.5],[1,0.5]];portConstraint=eastwest;whiteSpace=wrap;html=1;" vertex="1" parent="oFdiycqgnuYmv6bXf8W3-40">
          <mxGeometry y="104" width="321" height="23" as="geometry" />
        </mxCell>
        <mxCell id="oFdiycqgnuYmv6bXf8W3-45" value="" style="line;strokeWidth=1;fillColor=none;align=left;verticalAlign=middle;spacingTop=-1;spacingLeft=3;spacingRight=3;rotatable=0;labelPosition=right;points=[];portConstraint=eastwest;strokeColor=inherit;" vertex="1" parent="oFdiycqgnuYmv6bXf8W3-40">
          <mxGeometry y="127" width="321" height="8" as="geometry" />
        </mxCell>
        <mxCell id="oFdiycqgnuYmv6bXf8W3-46" value="&lt;div&gt;+ __init__(driveService): None&lt;/div&gt;" style="text;strokeColor=none;fillColor=none;align=left;verticalAlign=top;spacingLeft=4;spacingRight=4;overflow=hidden;rotatable=0;points=[[0,0.5],[1,0.5]];portConstraint=eastwest;whiteSpace=wrap;html=1;" vertex="1" parent="oFdiycqgnuYmv6bXf8W3-40">
          <mxGeometry y="135" width="321" height="26" as="geometry" />
        </mxCell>
        <mxCell id="oFdiycqgnuYmv6bXf8W3-47" value="&lt;div&gt;+ onItemClicked(item): None&lt;/div&gt;" style="text;strokeColor=none;fillColor=none;align=left;verticalAlign=top;spacingLeft=4;spacingRight=4;overflow=hidden;rotatable=0;points=[[0,0.5],[1,0.5]];portConstraint=eastwest;whiteSpace=wrap;html=1;" vertex="1" parent="oFdiycqgnuYmv6bXf8W3-40">
          <mxGeometry y="161" width="321" height="26" as="geometry" />
        </mxCell>
        <mxCell id="oFdiycqgnuYmv6bXf8W3-48" value="&lt;div&gt;+ populateRoot(): None&lt;/div&gt;" style="text;strokeColor=none;fillColor=none;align=left;verticalAlign=top;spacingLeft=4;spacingRight=4;overflow=hidden;rotatable=0;points=[[0,0.5],[1,0.5]];portConstraint=eastwest;whiteSpace=wrap;html=1;" vertex="1" parent="oFdiycqgnuYmv6bXf8W3-40">
          <mxGeometry y="187" width="321" height="26" as="geometry" />
        </mxCell>
        <mxCell id="oFdiycqgnuYmv6bXf8W3-49" value="&lt;div&gt;+ loadSubfoldersLazy(item): None&lt;/div&gt;" style="text;strokeColor=none;fillColor=none;align=left;verticalAlign=top;spacingLeft=4;spacingRight=4;overflow=hidden;rotatable=0;points=[[0,0.5],[1,0.5]];portConstraint=eastwest;whiteSpace=wrap;html=1;" vertex="1" parent="oFdiycqgnuYmv6bXf8W3-40">
          <mxGeometry y="213" width="321" height="26" as="geometry" />
        </mxCell>
        <mxCell id="oFdiycqgnuYmv6bXf8W3-50" value="+ confirm(): None" style="text;strokeColor=none;fillColor=none;align=left;verticalAlign=top;spacingLeft=4;spacingRight=4;overflow=hidden;rotatable=0;points=[[0,0.5],[1,0.5]];portConstraint=eastwest;whiteSpace=wrap;html=1;" vertex="1" parent="oFdiycqgnuYmv6bXf8W3-40">
          <mxGeometry y="239" width="321" height="26" as="geometry" />
        </mxCell>
        <mxCell id="oFdiycqgnuYmv6bXf8W3-52" value="&amp;lt;&amp;lt;GoogleDriveService&amp;gt;&amp;gt;" style="swimlane;fontStyle=1;align=center;verticalAlign=top;childLayout=stackLayout;horizontal=1;startSize=23;horizontalStack=0;resizeParent=1;resizeParentMax=0;resizeLast=0;collapsible=1;marginBottom=0;whiteSpace=wrap;html=1;" vertex="1" parent="1">
          <mxGeometry x="-1051" y="200" width="312" height="54" as="geometry" />
        </mxCell>
        <mxCell id="oFdiycqgnuYmv6bXf8W3-53" value="" style="line;strokeWidth=1;fillColor=none;align=left;verticalAlign=middle;spacingTop=-1;spacingLeft=3;spacingRight=3;rotatable=0;labelPosition=right;points=[];portConstraint=eastwest;strokeColor=inherit;" vertex="1" parent="oFdiycqgnuYmv6bXf8W3-52">
          <mxGeometry y="23" width="312" height="8" as="geometry" />
        </mxCell>
        <mxCell id="oFdiycqgnuYmv6bXf8W3-54" value="+ &lt;u&gt;listFolders&lt;/u&gt;(service, parentID:str): list[Rule]" style="text;strokeColor=none;fillColor=none;align=left;verticalAlign=top;spacingLeft=4;spacingRight=4;overflow=hidden;rotatable=0;points=[[0,0.5],[1,0.5]];portConstraint=eastwest;whiteSpace=wrap;html=1;" vertex="1" parent="oFdiycqgnuYmv6bXf8W3-52">
          <mxGeometry y="31" width="312" height="23" as="geometry" />
        </mxCell>
        <mxCell id="oFdiycqgnuYmv6bXf8W3-55" value="Use" style="endArrow=open;endSize=12;dashed=1;html=1;rounded=0;exitX=0.582;exitY=0.992;exitDx=0;exitDy=0;exitPerimeter=0;entryX=0.358;entryY=-0.002;entryDx=0;entryDy=0;entryPerimeter=0;" edge="1" parent="1" source="j3eprIJC5bGNVLI8AkwU-111" target="j3eprIJC5bGNVLI8AkwU-76">
          <mxGeometry width="160" relative="1" as="geometry">
            <mxPoint x="-415.33" y="-205" as="sourcePoint" />
            <mxPoint x="-415.33" y="-159" as="targetPoint" />
          </mxGeometry>
        </mxCell>
        <mxCell id="oFdiycqgnuYmv6bXf8W3-56" value="Use" style="endArrow=open;endSize=12;dashed=1;html=1;rounded=0;" edge="1" parent="1" source="j3eprIJC5bGNVLI8AkwU-107" target="j3eprIJC5bGNVLI8AkwU-117">
          <mxGeometry x="0.0357" y="-10" width="160" relative="1" as="geometry">
            <mxPoint x="-387" y="-166" as="sourcePoint" />
            <mxPoint x="-387" y="-120" as="targetPoint" />
            <Array as="points">
              <mxPoint x="-381" y="-259" />
            </Array>
            <mxPoint as="offset" />
          </mxGeometry>
        </mxCell>
        <mxCell id="oFdiycqgnuYmv6bXf8W3-57" value="" style="endArrow=open;endSize=12;dashed=1;html=1;rounded=0;exitX=0.001;exitY=0.454;exitDx=0;exitDy=0;exitPerimeter=0;" edge="1" parent="1" source="oFdiycqgnuYmv6bXf8W3-18" target="j3eprIJC5bGNVLI8AkwU-117">
          <mxGeometry width="160" relative="1" as="geometry">
            <mxPoint x="-438" y="-152.5" as="sourcePoint" />
            <mxPoint x="-379" y="-205.5" as="targetPoint" />
            <Array as="points">
              <mxPoint x="-381" y="-260" />
            </Array>
          </mxGeometry>
        </mxCell>
        <mxCell id="oFdiycqgnuYmv6bXf8W3-58" value="Use" style="endArrow=open;endSize=12;dashed=1;html=1;rounded=0;entryX=0;entryY=0.904;entryDx=0;entryDy=0;entryPerimeter=0;" edge="1" parent="1" source="j3eprIJC5bGNVLI8AkwU-122" target="j3eprIJC5bGNVLI8AkwU-133">
          <mxGeometry x="-0.0071" width="160" relative="1" as="geometry">
            <mxPoint x="29" y="-52" as="sourcePoint" />
            <mxPoint x="29" y="-6" as="targetPoint" />
            <mxPoint as="offset" />
          </mxGeometry>
        </mxCell>
        <mxCell id="oFdiycqgnuYmv6bXf8W3-59" value="Use" style="endArrow=open;endSize=12;dashed=1;html=1;rounded=0;exitX=1.001;exitY=0.365;exitDx=0;exitDy=0;exitPerimeter=0;entryX=-0.001;entryY=0.026;entryDx=0;entryDy=0;entryPerimeter=0;" edge="1" parent="1" source="oFdiycqgnuYmv6bXf8W3-1" target="j3eprIJC5bGNVLI8AkwU-60">
          <mxGeometry width="160" relative="1" as="geometry">
            <mxPoint x="-17" y="-79.81" as="sourcePoint" />
            <mxPoint x="44" y="-78.81" as="targetPoint" />
            <Array as="points">
              <mxPoint x="28" y="-36" />
              <mxPoint x="26" y="154" />
            </Array>
          </mxGeometry>
        </mxCell>
        <mxCell id="oFdiycqgnuYmv6bXf8W3-60" value="Use" style="endArrow=open;endSize=12;dashed=1;html=1;rounded=0;" edge="1" parent="1" source="j3eprIJC5bGNVLI8AkwU-122" target="j3eprIJC5bGNVLI8AkwU-96">
          <mxGeometry x="-0.0071" width="160" relative="1" as="geometry">
            <mxPoint x="-347" y="4.0023886549966505" as="sourcePoint" />
            <mxPoint x="-448.72800000000007" y="4.131999999999891" as="targetPoint" />
            <Array as="points">
              <mxPoint x="-385" y="-178" />
              <mxPoint x="-384" y="392" />
            </Array>
            <mxPoint as="offset" />
          </mxGeometry>
        </mxCell>
        <mxCell id="oFdiycqgnuYmv6bXf8W3-61" value="" style="endArrow=open;endSize=12;dashed=1;html=1;rounded=0;exitX=1.001;exitY=0.365;exitDx=0;exitDy=0;exitPerimeter=0;entryX=1;entryY=0.5;entryDx=0;entryDy=0;" edge="1" parent="1" source="oFdiycqgnuYmv6bXf8W3-1" target="oFdiycqgnuYmv6bXf8W3-8">
          <mxGeometry width="160" relative="1" as="geometry">
            <mxPoint x="-6" y="-37" as="sourcePoint" />
            <mxPoint x="28" y="163" as="targetPoint" />
            <Array as="points">
              <mxPoint x="28" y="-36" />
              <mxPoint x="26" y="154" />
            </Array>
          </mxGeometry>
        </mxCell>
        <mxCell id="oFdiycqgnuYmv6bXf8W3-62" value="Use" style="endArrow=open;endSize=12;dashed=1;html=1;rounded=0;entryX=-0.001;entryY=0.093;entryDx=0;entryDy=0;entryPerimeter=0;" edge="1" parent="1" source="j3eprIJC5bGNVLI8AkwU-86" target="j3eprIJC5bGNVLI8AkwU-55">
          <mxGeometry x="-0.0071" width="160" relative="1" as="geometry">
            <mxPoint x="-405" y="405.19000000000005" as="sourcePoint" />
            <mxPoint x="-344" y="406.19000000000005" as="targetPoint" />
            <mxPoint as="offset" />
          </mxGeometry>
        </mxCell>
        <mxCell id="oFdiycqgnuYmv6bXf8W3-63" value="Use" style="endArrow=open;endSize=12;dashed=1;html=1;rounded=0;entryX=1.001;entryY=0.823;entryDx=0;entryDy=0;entryPerimeter=0;" edge="1" parent="1" source="j3eprIJC5bGNVLI8AkwU-76" target="oFdiycqgnuYmv6bXf8W3-48">
          <mxGeometry x="-0.0071" width="160" relative="1" as="geometry">
            <mxPoint x="-680.27" y="-153.19" as="sourcePoint" />
            <mxPoint x="-782.27" y="-153.19" as="targetPoint" />
            <mxPoint as="offset" />
          </mxGeometry>
        </mxCell>
        <mxCell id="oFdiycqgnuYmv6bXf8W3-64" value="Use" style="endArrow=open;endSize=12;dashed=1;html=1;rounded=0;" edge="1" parent="1" source="oFdiycqgnuYmv6bXf8W3-40" target="oFdiycqgnuYmv6bXf8W3-52">
          <mxGeometry x="-0.0071" width="160" relative="1" as="geometry">
            <mxPoint x="-704" y="166" as="sourcePoint" />
            <mxPoint x="-752" y="166" as="targetPoint" />
            <mxPoint as="offset" />
          </mxGeometry>
        </mxCell>
        <mxCell id="oFdiycqgnuYmv6bXf8W3-65" value="Use" style="endArrow=open;endSize=12;dashed=1;html=1;rounded=0;entryX=1.005;entryY=0.998;entryDx=0;entryDy=0;entryPerimeter=0;" edge="1" parent="1" source="j3eprIJC5bGNVLI8AkwU-122" target="oFdiycqgnuYmv6bXf8W3-31">
          <mxGeometry x="-0.0071" width="160" relative="1" as="geometry">
            <mxPoint x="-347" y="4.0023886549966505" as="sourcePoint" />
            <mxPoint x="-448.72800000000007" y="4.131999999999891" as="targetPoint" />
            <Array as="points">
              <mxPoint x="-385" y="-178" />
              <mxPoint x="-384" y="84" />
            </Array>
            <mxPoint as="offset" />
          </mxGeometry>
        </mxCell>
        <mxCell id="oFdiycqgnuYmv6bXf8W3-66" value="" style="endArrow=open;endSize=12;dashed=1;html=1;rounded=0;" edge="1" parent="1" source="j3eprIJC5bGNVLI8AkwU-122">
          <mxGeometry x="-0.0071" width="160" relative="1" as="geometry">
            <mxPoint x="-347" y="4.0023886549966505" as="sourcePoint" />
            <mxPoint x="-440" y="486" as="targetPoint" />
            <Array as="points">
              <mxPoint x="-385" y="-178" />
              <mxPoint x="-384" y="486" />
            </Array>
            <mxPoint as="offset" />
          </mxGeometry>
        </mxCell>
        <mxCell id="oFdiycqgnuYmv6bXf8W3-67" value="Use" style="endArrow=open;endSize=12;dashed=1;html=1;rounded=0;" edge="1" parent="1" source="j3eprIJC5bGNVLI8AkwU-107" target="j3eprIJC5bGNVLI8AkwU-86">
          <mxGeometry x="-0.0071" width="160" relative="1" as="geometry">
            <mxPoint x="-997" y="459.45" as="sourcePoint" />
            <mxPoint x="-857" y="459.45" as="targetPoint" />
            <Array as="points">
              <mxPoint x="-1094" y="-259" />
              <mxPoint x="-1094" y="531" />
            </Array>
            <mxPoint as="offset" />
          </mxGeometry>
        </mxCell>
        <mxCell id="oFdiycqgnuYmv6bXf8W3-68" value="Use" style="endArrow=open;endSize=12;dashed=1;html=1;rounded=0;" edge="1" parent="1" source="j3eprIJC5bGNVLI8AkwU-102" target="j3eprIJC5bGNVLI8AkwU-96">
          <mxGeometry x="-0.0071" width="160" relative="1" as="geometry">
            <mxPoint x="-340" y="125" as="sourcePoint" />
            <mxPoint x="-340" y="180" as="targetPoint" />
            <Array as="points">
              <mxPoint x="-353" y="53" />
              <mxPoint x="-353" y="392" />
            </Array>
            <mxPoint as="offset" />
          </mxGeometry>
        </mxCell>
        <mxCell id="oFdiycqgnuYmv6bXf8W3-69" value="Use" style="endArrow=open;endSize=12;dashed=1;html=1;rounded=0;entryX=1.001;entryY=0.962;entryDx=0;entryDy=0;entryPerimeter=0;" edge="1" parent="1" source="j3eprIJC5bGNVLI8AkwU-57" target="oFdiycqgnuYmv6bXf8W3-13">
          <mxGeometry width="160" relative="1" as="geometry">
            <mxPoint x="46" y="206" as="sourcePoint" />
            <mxPoint x="46" y="252" as="targetPoint" />
          </mxGeometry>
        </mxCell>
      </root>
    </mxGraphModel>
  </diagram>
</mxfile>
